<?xml version="1.0" standalone="no"?>
<!DOCTYPE svg PUBLIC "-//W3C//DTD SVG 20010904//EN"
 "http://www.w3.org/TR/2001/REC-SVG-20010904/DTD/svg10.dtd">
<svg version="1.0" xmlns="http://www.w3.org/2000/svg"
 width="300.000000pt" height="300.000000pt" viewBox="0 0 300.000000 300.000000"
 preserveAspectRatio="xMidYMid meet">
<metadata>
Created by potrace 1.10, written by Peter Selinger 2001-2011
</metadata>
<g transform="translate(0.000000,300.000000) scale(0.100000,-0.100000)"
fill="#000000" stroke="none">
<path d="M2266 2454 c-3 -9 -6 -35 -6 -59 0 -34 -5 -46 -25 -59 -13 -9 -34
-26 -47 -39 -13 -13 -45 -30 -72 -37 -27 -8 -68 -28 -91 -45 l-41 -32 -25 20
-24 19 55 50 c67 61 123 94 198 120 48 16 51 18 19 14 -69 -9 -146 -53 -222
-127 -71 -68 -75 -71 -104 -61 -17 6 -33 8 -35 4 -2 -4 21 -47 51 -94 l55 -87
-64 -78 c-78 -94 -97 -127 -34 -58 25 28 45 54 46 59 0 4 8 -2 18 -14 16 -19
22 -21 40 -11 43 23 40 65 -8 139 l-22 32 35 0 c20 0 43 -7 52 -17 16 -15 15
-18 -7 -34 -12 -10 -18 -19 -13 -19 6 0 16 5 23 12 7 7 12 8 12 2 0 -5 4 -4 8
3 4 6 34 20 67 32 33 11 50 20 37 21 -12 0 -39 -7 -60 -15 -28 -12 -38 -13
-41 -4 -2 7 -14 22 -27 34 -31 29 -30 47 4 71 24 18 123 64 136 64 3 0 6 -9 6
-20 0 -39 28 -78 65 -90 36 -12 46 -35 23 -58 -17 -17 -43 -15 -59 4 -12 15
-11 16 9 9 20 -6 23 -4 20 12 -4 23 -27 23 -42 1 -8 -14 -6 -22 11 -40 31 -30
73 -16 86 28 6 21 20 37 43 48 36 17 59 57 50 89 -4 17 -1 18 25 13 19 -3 28
-2 24 4 -3 6 -15 10 -27 10 -11 0 -33 11 -50 25 -16 14 -36 25 -44 25 -24 0
-16 30 16 62 27 27 36 30 70 25 22 -3 40 -1 40 4 0 5 -20 9 -44 9 -36 0 -47 5
-60 25 -19 28 -41 33 -50 9z m40 -37 c1 -9 -4 -21 -12 -28 -12 -9 -14 -6 -14
21 0 33 21 39 26 7z m-65 -121 c-25 -26 -27 -58 -5 -76 13 -12 14 -10 3 14
-11 23 -10 29 4 44 16 15 17 12 17 -46 l0 -62 -25 12 c-28 13 -40 45 -31 81 8
32 49 83 54 68 2 -7 -5 -23 -17 -35z m86 -25 c20 -26 15 -58 -13 -80 -24 -19
-51 -20 -39 -2 2 5 5 31 6 59 2 41 5 49 18 44 9 -3 21 -13 28 -21z m-359 -103
c20 -20 14 -28 -21 -28 -31 0 -57 14 -57 32 0 13 65 9 78 -4z"/>
<path d="M1835 2089 c-15 -22 -42 -69 -62 -105 -19 -35 -36 -64 -38 -64 -2 0
-26 23 -53 52 -27 28 -52 47 -55 41 -3 -5 18 -33 47 -62 l54 -53 -37 -67 c-83
-147 -122 -221 -117 -221 7 0 66 101 117 197 42 82 43 83 62 62 15 -16 16 -23
7 -34 -7 -8 -15 -13 -19 -11 -3 2 -5 -13 -3 -35 4 -33 8 -39 27 -39 25 0 55
33 55 59 0 8 -12 27 -26 42 l-26 27 51 84 c28 46 59 94 67 108 11 18 7 15 -13
-7 -26 -29 -96 -139 -107 -167 -2 -8 -7 -8 -15 0 -8 7 4 36 45 105 70 118 76
129 69 129 -2 0 -16 -18 -30 -41z"/>
<path d="M2345 2109 c22 -4 49 -8 60 -8 17 -1 17 1 5 9 -8 5 -35 9 -60 9 l-45
-1 40 -9z"/>
<path d="M2156 1964 c-103 -19 -198 -70 -276 -149 -72 -72 -140 -161 -175
-230 -33 -62 -10 -35 58 70 84 132 195 231 308 276 64 25 206 35 292 21 31 -5
57 -6 57 -1 0 4 -17 10 -37 13 -97 13 -154 13 -227 0z"/>
<path d="M2118 1908 c-25 -21 -28 -45 -9 -69 12 -16 23 -20 39 -15 26 9 29 41
5 55 -10 5 -15 13 -11 17 4 4 19 -1 33 -10 33 -21 34 -63 3 -69 l-23 -4 23 -2
c12 0 22 -5 22 -9 0 -11 -36 -49 -66 -68 -38 -26 -20 -29 20 -4 49 30 66 57
66 107 0 67 -57 107 -102 71z"/>
<path d="M2235 1820 c-8 -13 12 -22 34 -15 11 3 47 1 82 -4 71 -12 91 -7 33 7
-60 15 -143 22 -149 12z"/>
<path d="M1669 1708 c-28 -57 -53 -104 -54 -106 -2 -2 -26 -3 -54 -4 -28 0
-51 -3 -51 -7 0 -4 10 -18 23 -31 12 -13 32 -37 44 -53 l21 -28 -35 -62 c-19
-34 -46 -84 -60 -112 -41 -84 7 -15 56 80 24 47 45 85 46 85 2 0 10 -11 18
-24 15 -22 14 -25 -12 -52 -15 -16 -53 -76 -85 -132 -72 -131 -97 -171 -159
-256 l-51 -69 -12 37 c-13 36 -13 36 38 88 54 57 128 158 115 158 -2 0 -29
-33 -60 -72 -69 -91 -113 -133 -121 -119 -4 6 5 28 19 48 14 21 25 51 25 68 0
22 10 41 33 63 30 29 35 31 46 18 11 -13 17 -13 35 -4 11 7 24 12 28 13 3 0
10 4 15 9 5 5 3 6 -5 2 -10 -6 -11 -1 -7 17 5 20 -1 34 -30 66 l-36 40 55 65
c49 58 82 106 73 106 -2 0 -32 -36 -68 -80 -35 -43 -67 -79 -70 -80 -3 0 -29
24 -57 54 -29 30 -54 51 -56 47 -3 -4 17 -29 44 -56 27 -28 49 -53 50 -57 0
-3 -22 -25 -50 -48 -48 -40 -50 -41 -74 -25 -33 22 -99 22 -133 0 -26 -17 -27
-17 -44 3 -13 17 -16 35 -12 85 5 61 5 64 -27 90 -34 29 -51 33 -81 17 -30
-17 -22 -51 28 -114 l46 -60 -16 -62 c-10 -34 -17 -84 -17 -111 0 -116 105
-183 213 -135 40 18 46 18 51 5 8 -20 -29 -47 -64 -47 -16 -1 -28 -9 -35 -23
-18 -42 -172 -84 -313 -84 -82 -1 -82 -1 -131 40 -27 23 -52 41 -55 41 -3 0
-6 -12 -6 -27 2 -186 3 -183 -24 -183 -34 0 -64 -43 -46 -65 17 -20 53 -19 73
3 14 15 17 40 17 122 l0 103 33 -26 c32 -25 35 -35 22 -72 -7 -20 -6 -20 9 -1
9 11 16 27 16 35 0 13 17 16 103 17 102 1 203 21 260 51 27 13 31 13 51 -6 14
-14 36 -21 59 -21 32 0 44 8 92 58 85 91 139 171 230 345 46 88 53 96 59 73 5
-20 -13 -61 -80 -188 -158 -296 -279 -447 -425 -532 -35 -21 -53 -34 -39 -31
44 11 157 95 217 158 75 82 164 220 264 411 44 86 86 156 93 156 20 0 46 34
46 61 0 13 -14 41 -31 62 -28 34 -31 57 -7 57 5 0 7 -8 4 -17 -6 -17 -5 -17 8
0 20 25 35 21 51 -15 l14 -33 1 27 c0 18 18 51 47 88 47 61 57 68 68 50 13
-21 61 -10 90 20 21 22 29 41 30 70 1 47 20 62 120 98 41 15 49 20 25 16 -19
-3 -63 -19 -98 -35 -37 -18 -70 -28 -82 -24 -40 13 -100 -41 -100 -91 0 -8
-23 -45 -52 -83 -51 -67 -53 -68 -75 -54 -15 10 -36 14 -57 10 -40 -6 -88 19
-65 34 22 14 56 10 74 -8 16 -16 17 -15 13 3 -2 10 16 55 39 98 24 44 41 81
39 83 -5 5 -61 -92 -76 -131 -8 -22 -14 -26 -22 -18 -11 11 -6 23 84 205 5 9
6 17 3 17 -2 0 -28 -46 -56 -102z m275 -3 c15 -40 -52 -103 -94 -90 -26 8 -20
63 10 87 27 22 76 24 84 3z m-938 -253 c26 -17 47 -92 25 -92 -5 0 -16 11 -25
25 -9 14 -23 36 -32 50 -15 24 -15 25 2 25 11 0 24 -4 30 -8z m398 -117 c18
-13 18 -15 -3 -41 -11 -15 -21 -32 -21 -38 0 -7 -13 -25 -30 -41 -21 -21 -30
-24 -30 -13 0 8 -10 27 -21 42 -12 15 -20 29 -18 31 13 12 95 74 99 74 3 0 13
-6 24 -14z m-340 -110 c-12 -50 -6 -79 21 -102 27 -24 65 -31 65 -13 0 6 -8
10 -17 10 -26 0 -53 31 -53 61 0 15 4 30 9 33 5 3 34 -28 65 -69 l57 -75 -26
-10 c-15 -6 -33 -10 -41 -10 -33 0 -84 30 -98 59 -16 30 -22 134 -9 167 11 30
35 -14 27 -51z m151 35 c4 -6 -10 -17 -29 -25 -20 -9 -36 -17 -36 -20 0 -7 52
14 68 28 11 9 18 6 34 -13 24 -29 20 -102 -6 -128 -15 -15 -17 -15 -30 3 -8
11 -34 47 -60 79 -35 46 -43 62 -35 73 13 15 85 18 94 3z m63 -316 c-4 -35
-43 -60 -81 -50 -33 8 -36 23 -5 22 15 -1 24 6 26 19 5 25 44 57 55 46 5 -5 7
-21 5 -37z"/>
<path d="M1505 1414 c-31 -48 -54 -88 -52 -91 5 -4 83 111 106 155 25 48 -1
18 -54 -64z"/>
<path d="M772 1238 c-25 -25 -6 -68 29 -68 24 0 29 22 10 44 -15 17 -15 18 4
15 11 -3 24 -16 29 -31 13 -36 -13 -74 -67 -98 -24 -11 -34 -19 -24 -19 52 -2
117 58 117 108 0 45 -68 79 -98 49z"/>
<path d="M470 1221 c0 -15 212 -62 274 -60 17 0 -23 11 -89 24 -66 13 -135 28
-152 34 -18 5 -33 6 -33 2z"/>
<path d="M885 1191 c-9 -16 33 -33 68 -28 31 4 31 4 -5 5 -26 2 -38 7 -38 17
0 17 -16 20 -25 6z"/>
<path d="M533 1080 c-18 -11 -41 -17 -50 -14 -16 5 -16 4 -2 -8 9 -7 19 -24
24 -36 15 -50 114 -64 153 -22 15 16 24 17 67 9 56 -10 227 -5 264 9 14 5 -33
7 -122 4 -168 -5 -193 -1 -201 31 -11 46 -80 60 -133 27z m98 -19 c33 -27 20
-34 -34 -20 -25 6 -51 9 -58 7 -7 -2 15 -10 49 -18 62 -13 76 -23 46 -34 -31
-12 -63 -6 -90 17 -23 20 -25 26 -15 45 15 28 69 30 102 3z"/>
<path d="M470 913 c0 -11 134 -47 152 -41 7 3 -16 12 -52 20 -36 9 -73 19 -82
23 -10 4 -18 3 -18 -2z"/>
<path d="M1205 836 c-16 -13 -59 -40 -95 -60 -36 -21 -54 -34 -40 -31 35 9
127 65 152 92 28 29 21 29 -17 -1z"/>
<path d="M880 815 c0 -2 25 -43 56 -91 55 -86 55 -86 36 -108 -26 -28 -31 -47
-20 -68 19 -38 78 -6 78 41 0 12 -13 42 -30 66 l-30 43 26 6 c32 9 71 -15 77
-46 3 -18 5 -16 6 8 1 20 -6 38 -20 50 -11 10 -27 33 -34 51 -8 20 -23 34 -37
37 -47 10 -108 16 -108 11z m128 -47 c7 -7 12 -17 12 -23 0 -18 -67 -5 -86 16
-17 18 -16 19 22 19 22 0 45 -5 52 -12z"/>
<path d="M470 759 c0 -7 37 -21 88 -32 39 -9 14 7 -39 24 -27 9 -49 13 -49 8z"/>
<path d="M715 700 c40 -10 131 -11 180 -1 29 6 4 8 -85 8 -76 0 -113 -2 -95
-7z"/>
<path d="M476 601 c37 -37 351 -75 424 -52 31 10 27 10 -35 6 -87 -6 -225 9
-318 35 -82 23 -84 23 -71 11z"/>
</g>
</svg>
