<?xml version="1.0" standalone="no"?>
<!DOCTYPE svg PUBLIC "-//W3C//DTD SVG 20010904//EN"
 "http://www.w3.org/TR/2001/REC-SVG-20010904/DTD/svg10.dtd">
<svg version="1.0" xmlns="http://www.w3.org/2000/svg"
 width="300.000000pt" height="150.000000pt" viewBox="0 0 300.000000 150.000000"
 preserveAspectRatio="xMidYMid meet">
<metadata>
Created by potrace 1.10, written by Peter Selinger 2001-2011
</metadata>
<g transform="translate(0.000000,150.000000) scale(0.100000,-0.100000)"
fill="#000000" stroke="none">
<path d="M1520 1466 c0 -8 -16 -38 -36 -67 l-36 -54 34 -30 c18 -16 55 -48 81
-71 l48 -40 -18 -32 c-14 -24 -15 -36 -7 -49 17 -28 50 -28 69 1 22 32 13 59
-31 92 -19 15 -34 33 -34 41 0 8 -3 12 -7 10 -5 -3 -25 9 -45 26 l-37 32 27
56 27 56 64 -57 64 -57 -18 -27 c-14 -22 -16 -32 -7 -51 7 -15 20 -25 32 -25
26 0 54 43 45 70 -6 18 -194 190 -209 190 -3 0 -6 -6 -6 -14z"/>
<path d="M1416 1369 c-3 -13 -11 -46 -16 -73 -17 -77 -59 -152 -116 -206 -63
-60 -56 -67 9 -9 56 49 113 158 127 243 9 59 6 91 -4 45z"/>
<path d="M1810 1379 c0 -2 -15 -48 -34 -101 -37 -109 -79 -184 -145 -259 l-44
-50 -19 21 c-16 17 -29 20 -81 18 -41 -1 -68 -8 -80 -19 -15 -14 -139 -79
-150 -79 -3 0 -2 12 1 26 3 16 -3 36 -17 54 -11 16 -21 38 -21 48 0 30 -22 51
-65 60 -22 6 -48 13 -57 17 -26 10 -23 -2 27 -109 l45 -97 -25 -11 c-43 -19
-47 -88 -5 -88 25 0 60 34 60 58 0 9 -11 41 -25 71 l-25 53 22 -6 c13 -3 28
-6 35 -6 16 0 43 -28 43 -45 0 -7 -7 -21 -16 -29 -8 -9 -11 -16 -4 -16 16 0
137 56 169 79 l29 21 71 -79 c70 -78 71 -78 50 -97 -27 -25 -23 -78 7 -82 12
-2 29 4 38 13 27 27 19 64 -26 117 l-42 50 25 19 c22 17 24 17 31 1 5 -12 7
-10 7 10 1 16 9 31 19 37 28 15 98 112 136 188 39 78 81 201 72 210 -3 4 -6 4
-6 2z m-622 -325 c36 -25 29 -43 -14 -34 -34 8 -53 23 -54 43 0 13 45 7 68 -9z
m379 -90 c2 -6 -8 -19 -23 -28 -25 -17 -27 -17 -50 5 -18 17 -21 25 -12 31 18
11 81 5 85 -8z"/>
<path d="M1544 1169 c-10 -23 -36 -67 -57 -98 -38 -54 -38 -55 -7 -26 29 28
97 152 87 161 -2 2 -12 -14 -23 -37z"/>
<path d="M1902 1152 c-13 -35 -30 -66 -38 -69 -19 -7 -18 -33 1 -33 8 0 15 5
15 12 0 6 12 35 26 65 14 30 24 62 22 71 -2 9 -14 -11 -26 -46z"/>
<path d="M1724 1045 c-15 -23 -15 -27 0 -50 19 -28 34 -31 61 -11 25 18 13 46
-20 46 -15 0 -24 4 -20 10 12 20 54 10 75 -17 25 -32 21 -80 -12 -125 -10 -15
-15 -28 -9 -28 12 0 46 47 55 78 10 31 -1 75 -25 101 -29 31 -84 29 -105 -4z"/>
<path d="M1030 940 c-41 -22 -83 -49 -95 -61 -22 -24 -15 -21 60 26 28 17 67
39 88 49 35 16 47 26 30 26 -5 0 -42 -18 -83 -40z"/>
<path d="M1784 949 c-10 -11 -49 -43 -86 -72 -74 -56 -85 -77 -16 -29 41 29
138 122 127 122 -3 0 -14 -9 -25 -21z"/>
<path d="M1919 894 c-30 -59 -105 -135 -175 -175 -59 -33 -69 -44 -28 -29 50
19 140 90 175 138 41 56 65 100 57 108 -3 3 -17 -16 -29 -42z"/>
<path d="M1432 875 c-29 -13 -123 -48 -208 -76 -85 -28 -157 -56 -161 -62 -4
-7 0 -8 13 -3 10 4 86 30 168 57 136 46 246 92 246 104 0 7 0 7 -58 -20z"/>
<path d="M824 836 c-36 -36 -44 -75 -19 -96 12 -10 12 -15 1 -33 -16 -26 -48
-159 -36 -152 5 3 11 22 15 43 13 80 31 114 66 129 19 7 42 24 51 36 24 30 23
83 -1 97 -30 16 -40 13 -77 -24z m75 -5 c34 -22 -34 -93 -73 -78 -24 9 -20 53
6 71 25 18 46 20 67 7z"/>
<path d="M1022 825 c-64 -30 -143 -110 -178 -181 -28 -58 -48 -127 -33 -118 5
3 9 12 9 21 0 32 70 159 107 195 21 21 68 54 103 73 75 40 70 46 -8 10z"/>
<path d="M1006 768 c3 -13 14 -41 24 -63 31 -69 50 -117 50 -125 0 -4 -9 -10
-20 -13 -28 -7 -47 -52 -30 -72 18 -22 49 -15 73 17 17 23 19 31 9 50 -6 13
-28 64 -48 113 -20 50 -38 96 -41 103 -9 22 -25 13 -17 -10z"/>
<path d="M527 763 c-14 -14 -6 -57 24 -125 l31 -71 -42 -82 c-67 -130 -53
-222 41 -273 37 -20 53 -23 106 -18 l62 5 10 -36 c14 -49 -4 -87 -43 -91 -38
-5 -73 5 -79 22 -4 10 3 13 26 12 28 -1 32 2 32 24 0 35 -46 41 -69 8 -22 -31
-20 -45 9 -73 34 -35 96 -35 130 0 27 26 34 89 15 125 -9 16 -3 27 34 64 51
51 65 97 47 157 -29 95 -118 141 -203 105 -12 -6 -21 0 -32 22 -14 27 -14 32
4 68 29 55 26 105 -6 138 -26 25 -81 36 -97 19z m87 -75 c9 -27 1 -78 -12 -78
-8 0 -42 96 -42 120 0 21 44 -13 54 -42z m-4 -173 c7 -19 5 -33 -10 -58 -28
-46 -26 -83 9 -118 27 -27 51 -38 51 -23 0 3 -11 15 -25 26 -28 22 -35 77 -12
96 10 9 21 -6 50 -71 20 -45 37 -88 37 -94 0 -20 -71 -15 -108 7 -37 23 -52
54 -52 110 0 36 35 150 46 150 2 0 9 -11 14 -25z m134 -35 c38 -14 68 -67 62
-109 -5 -35 -55 -97 -66 -84 -4 5 -24 48 -45 96 -32 74 -36 90 -24 98 18 11
42 11 73 -1z"/>
<path d="M1431 748 c-34 -10 -61 -22 -58 -24 7 -7 126 27 133 37 7 12 0 11
-75 -13z"/>
<path d="M1250 720 c-25 -25 -25 -32 -2 -61 12 -14 25 -20 36 -16 26 10 32 38
11 53 -24 18 -13 29 14 15 51 -28 31 -110 -37 -149 -20 -12 -30 -22 -21 -22
24 0 82 42 96 70 20 39 16 78 -12 105 -29 30 -58 32 -85 5z"/>
<path d="M1585 711 c-36 -15 -58 -48 -51 -75 16 -66 146 -31 146 39 0 38 -46
55 -95 36z m59 -24 c25 -19 16 -49 -17 -60 -58 -19 -107 35 -54 61 30 15 50
14 71 -1z"/>
<path d="M936 658 c-48 -49 -96 -130 -96 -160 0 -7 14 15 31 49 20 41 48 79
86 112 31 28 51 51 44 51 -7 0 -36 -24 -65 -52z"/>
<path d="M1175 680 c-40 -10 -85 -28 -85 -34 0 -6 100 23 120 35 18 10 6 10
-35 -1z"/>
<path d="M1372 628 c6 -18 58 -21 108 -8 58 16 44 22 -21 10 -37 -7 -55 -7
-57 0 -2 5 -10 10 -19 10 -8 0 -13 -6 -11 -12z"/>
<path d="M984 597 c-45 -31 -114 -115 -114 -139 0 -6 15 11 33 38 28 43 73 83
133 121 10 6 14 12 8 12 -7 1 -34 -14 -60 -32z"/>
<path d="M1185 579 c-22 -5 -44 -14 -50 -20 -10 -11 4 -8 95 17 53 14 16 17
-45 3z"/>
<path d="M964 481 c-36 -25 -81 -79 -72 -85 2 -2 29 24 61 56 31 32 55 58 54
58 -2 0 -22 -13 -43 -29z"/>
<path d="M1080 363 c0 -99 1 -103 21 -103 20 0 21 4 16 55 -6 61 2 69 28 28
l18 -27 23 27 c13 15 26 27 29 27 4 0 3 -25 0 -55 -7 -51 -6 -55 14 -55 20 0
21 5 20 103 l0 102 -41 -47 -41 -46 -43 46 -43 47 -1 -102z"/>
<path d="M1324 450 c-33 -13 -54 -50 -54 -93 0 -30 7 -46 30 -69 27 -27 36
-30 71 -25 71 9 102 62 79 132 -17 53 -73 77 -126 55z m74 -46 c26 -18 29 -60
5 -86 -41 -46 -114 3 -91 61 16 43 47 52 86 25z"/>
<path d="M1524 450 c-33 -13 -54 -50 -54 -93 0 -30 7 -46 30 -69 27 -27 36
-30 71 -25 48 6 76 29 84 68 19 86 -53 151 -131 119z m74 -46 c42 -29 18 -104
-34 -104 -49 0 -72 64 -37 102 20 22 42 23 71 2z"/>
<path d="M1679 454 c0 -2 -1 -46 -1 -96 l0 -93 46 1 c63 1 101 36 101 94 0 54
-34 86 -97 93 -27 2 -48 3 -49 1z m91 -54 c11 -11 20 -29 20 -40 0 -26 -34
-60 -60 -60 -18 0 -20 7 -20 60 0 53 2 60 20 60 11 0 29 -9 40 -20z"/>
<path d="M1904 435 c-32 -32 -28 -53 16 -83 46 -31 45 -48 -2 -45 -32 2 -38
-1 -38 -17 0 -14 9 -21 34 -25 50 -10 76 8 76 51 0 29 -6 38 -35 56 -40 23
-41 44 -1 41 19 -1 26 3 26 17 0 17 -18 30 -41 30 -6 0 -21 -11 -35 -25z"/>
<path d="M2010 360 c0 -87 2 -101 16 -98 24 5 24 191 0 196 -14 3 -16 -11 -16
-98z"/>
<path d="M2114 450 c-53 -21 -72 -105 -34 -153 34 -43 110 -47 110 -7 0 16 -5
18 -29 14 -33 -7 -71 23 -71 56 0 30 38 63 65 57 15 -2 26 1 30 11 10 28 -28
40 -71 22z"/>
<path d="M2200 361 c0 -96 1 -101 21 -101 19 0 20 4 14 40 -4 22 -4 40 -1 40
3 0 17 -18 31 -40 16 -25 33 -40 45 -40 26 0 26 4 -12 56 l-32 44 32 45 c38
54 39 57 10 53 -14 -2 -31 -17 -43 -40 -25 -48 -35 -48 -32 -1 1 29 -2 38 -15
41 -16 3 -18 -7 -18 -97z"/>
</g>
</svg>
